<?xml version="1.0" encoding="iso-8859-1"?>
<!-- Uploaded to: SVG Repo, www.svgrepo.com, Generator: SVG Repo Mixer Tools -->
<svg height="800px" width="800px" version="1.1" id="Layer_1" xmlns="http://www.w3.org/2000/svg" xmlns:xlink="http://www.w3.org/1999/xlink" 
	 viewBox="0 0 392.533 392.533" xml:space="preserve">
<path style="fill:#FFFFFF;" d="M342.174,225.243c-5.624-2.715-7.628-9.826-4.461-15.386c9.762-16.097,9.956-36.137,0.646-52.364
	c-12.929-22.432-40.598-31.935-64.453-22.044c-6.077,2.327-12.412-0.776-14.481-6.465c-15.192-42.408-57.794-67.556-104.21-56.889
	c-44.865,10.731-74.214,54.949-66.715,100.525c1.034,5.947-3.038,11.507-8.986,12.541c-18.877,3.168-34.78,13.705-45.123,28.251
	h36.396c6.012,0,10.925,4.848,10.925,10.925s-4.848,10.925-10.925,10.925h-46.61c-1.552,5.818-2.392,11.895-2.392,18.23
	c0,1.228,0.129,2.392,0.129,3.556h21.657c6.012,0,10.925,4.849,10.925,10.925s-4.848,10.925-10.925,10.925H26.634
	c10.214,25.729,35.232,44.024,64.517,44.024h227.943c28.444,0,51.588-23.079,51.588-51.523
	C370.747,251.748,359.758,234.099,342.174,225.243z"/>
<path style="fill:#FFC10D;" d="M332.347,244.83c-17.067-8.533-23.143-29.802-13.317-46.093v-0.065
	c5.624-9.244,6.206-21.075,0.388-30.319c-12.735-20.234-33.552-14.158-37.172-12.671l-0.065,0.065
	c-17.325,7.176-37.107-1.681-43.313-19.394l-0.065-0.129c-9.374-26.764-36.396-51.782-78.61-42.796
	c-34.069,7.176-55.919,41.309-50.23,75.701l0,0c2.974,17.778-9.05,34.586-26.828,37.56l0,0
	c-22.949,3.879-39.628,23.596-39.628,46.804c0,26.246,21.333,47.58,47.58,47.58l0,0h227.426c15.903,0,29.414-12.283,30.19-28.186
	C349.414,261.057,343.014,250.131,332.347,244.83z"/>
<path style="fill:#194F82;" d="M361.309,211.344c8.663-20.881,7.37-44.8-4.073-64.776c-16.485-28.638-49.972-42.408-81.196-34.715
	c-21.786-47.451-74.085-73.309-125.931-60.962C97.552,63.497,62.19,112.887,65.875,165.962C27.087,177.016,0,212.378,0,253.558
	c0,50.295,40.986,91.152,91.152,91.152h227.943c40.469,0,73.438-32.905,73.438-73.438
	C392.533,247.158,380.768,224.919,361.309,211.344z M319.16,322.923H91.152c-29.285,0-54.432-18.295-64.517-44.024h16.937
	c6.012,0,10.925-4.848,10.925-10.925c0-6.012-4.848-10.925-10.925-10.925H21.915c-0.065-1.164-0.129-2.392-0.129-3.556
	c0-6.271,0.84-12.347,2.392-18.23h46.675c6.012,0,10.925-4.848,10.925-10.925s-4.848-10.925-10.925-10.925H34.457
	c10.343-14.61,26.246-25.083,45.123-28.251c5.947-1.034,9.891-6.594,8.986-12.541c-7.564-45.511,21.721-89.6,66.651-100.461
	c46.352-10.731,88.954,14.352,104.21,56.824c2.004,5.689,8.339,8.792,14.481,6.465c23.855-9.891,51.523-0.453,64.453,22.044
	c9.374,16.226,9.115,36.331-0.646,52.364c-3.168,5.56-1.228,12.671,4.461,15.386c17.648,8.792,28.509,26.505,28.509,46.028
	C370.747,299.78,347.539,322.923,319.16,322.923z"/>
<path style="fill:#56ACE0;" d="M167.628,222.075h2.909c6.012,0,10.925,4.848,10.925,10.925v46.352H211.2V233
	c0-6.012,4.848-10.925,10.925-10.925h2.909l-28.768-30.448L167.628,222.075z"/>
<path style="fill:#194F82;" d="M258.133,225.501l-53.915-57.277c-4.331-4.59-11.572-4.59-15.838,0l-54.044,57.277
	c-6.594,6.982-1.616,18.36,7.952,18.36h17.325v46.352c0,6.012,4.848,10.925,10.925,10.925h51.523
	c6.012,0,10.925-4.848,10.925-10.925v-46.352h17.325C259.814,243.861,264.727,232.418,258.133,225.501z M222.061,222.075
	c-6.012,0-10.925,4.848-10.925,10.925v46.352h-29.737V233c0-6.012-4.848-10.925-10.925-10.925h-2.909l28.638-30.448l28.638,30.448
	H222.061z"/>
</svg>